<svg xmlns="http://www.w3.org/2000/svg" width="19" height="19" viewBox="0 0 19 19"><g><g><g><g><g><path d="M17.504 13.282a3.967 3.967 0 0 1-3.963 3.963h-7.82a3.967 3.967 0 0 1-3.963-3.963v-7.82a3.967 3.967 0 0 1 3.963-3.963h7.82a3.967 3.967 0 0 1 3.963 3.963zM13.541.04h-7.82a5.427 5.427 0 0 0-5.42 5.421v7.82a5.427 5.427 0 0 0 5.42 5.42h7.82a5.427 5.427 0 0 0 5.421-5.42v-7.82a5.427 5.427 0 0 0-5.42-5.421z"/></g></g></g><g><g><g><path d="M9.631 12.944A3.576 3.576 0 0 1 6.06 9.372 3.576 3.576 0 0 1 9.631 5.8a3.576 3.576 0 0 1 3.572 3.572 3.576 3.576 0 0 1-3.572 3.572zm0-8.602a5.036 5.036 0 0 0-5.03 5.03 5.036 5.036 0 0 0 5.03 5.03 5.036 5.036 0 0 0 5.03-5.03 5.036 5.036 0 0 0-5.03-5.03z"/></g></g></g><g><g><g><path d="M14 4.5c0-.276.448-.5 1-.5s1 .224 1 .5-.448.5-1 .5-1-.224-1-.5z"/></g></g></g></g></g></svg>