<svg xmlns="http://www.w3.org/2000/svg" width="19" height="16" viewBox="0 0 19 16"><g><g><path d="M18.536 2.586a7.977 7.977 0 0 1-2.204.604 3.804 3.804 0 0 0 1.683-2.115c-.74.441-1.556.752-2.426.926A3.825 3.825 0 0 0 8.97 4.617c0 .304.025.595.088.873a10.829 10.829 0 0 1-7.885-4.002A3.852 3.852 0 0 0 .65 3.422c0 1.325.682 2.5 1.7 3.18A3.778 3.778 0 0 1 .62 6.13v.042a3.843 3.843 0 0 0 3.066 3.76c-.311.084-.65.125-1.003.125-.245 0-.492-.014-.724-.065.495 1.515 1.902 2.629 3.574 2.665A7.687 7.687 0 0 1 .79 14.29c-.314 0-.615-.014-.916-.053a10.77 10.77 0 0 0 5.87 1.717c7.04 0 10.889-5.832 10.889-10.887 0-.169-.006-.332-.014-.494a7.632 7.632 0 0 0 1.917-1.986z"/></g></g></svg>